PathFileType	4	(X/Y/Z)	D:\TRACE\v60_Jaco2_6-2-23\ArmBody_Mo2_DMP_1-v60.trc
DataRate	CameraRate	NumFrames	NumMarkers	Units	OrigDataRate	OrigDataStartFrame	OrigNumFrames
100.00	100.00	      41	9	mm	100.00	3276	      6551
Frame#	Time	front left toe			Front right toe			aft left toe			aft right toe			Arm			FL body			FR body			AL Body			AR Body			
		X1	Y1	Z1	X2	Y2	Z2	X3	Y3	Z3	X4	Y4	Z4	X5	Y5	Z5	X6	Y6	Z6	X7	Y7	Z7	X8	Y8	Z8	X9	Y9	Z9	

3276	32.750	-14.49987	1137.80139	-224.00275	210.58040	12.74003	-258.18112	-111.10606	18.70002	408.90164	192.33235	148.77129	372.22397	-67.95619	1131.47290	-662.66821	-111.01999	577.00983	-365.76959	47.59870	583.05701	-380.79034	-14.84122	554.85199	575.79236	138.48181	546.95123	560.47333	
3277	32.760	-16.32290	1137.30273	-225.68350	210.24294	12.40486	-258.25140	-112.22614	19.31253	408.38055	190.03474	144.71794	369.66061	-68.37948	1130.59863	-664.56158	-112.55169	576.14142	-367.06738	45.57065	581.88934	-381.18451	-17.94514	555.84100	574.51831	135.56265	547.82715	559.74719	
3278	32.770	-237.79732	143.63196	-217.20625	209.10281	11.74530	-258.54727	-112.93801	19.88138	408.25018	186.97011	139.86618	367.51224	-69.19650	1129.74841	-666.37640	-114.51984	575.36182	-367.95175	44.00142	581.42212	-382.38571	-20.23129	556.57855	574.21698	132.69339	548.59485	559.15002	
3279	32.780	-19.87336	1135.83923	-229.08476	207.83662	11.06311	-258.80630	-113.98786	20.41962	407.97037	183.32884	134.09940	364.80679	-69.66057	1128.69775	-668.26343	-116.42380	574.51306	-368.61014	41.74050	579.82605	-382.31644	-23.27832	557.47583	573.20172	130.21323	549.21356	558.47736	
3280	32.790	-20.79012	1134.85510	-230.78703	206.20152	10.37497	-259.35764	-114.74635	20.90596	407.71255	180.88695	127.62552	362.33786	-69.80006	1127.31775	-669.94501	-118.34993	573.95660	-369.89853	40.07404	578.79547	-383.23349	-26.18414	558.21191	572.27332	127.04778	549.93353	557.76727	
3281	32.800	-245.34555	124.93341	-227.27086	205.56093	10.37386	-259.15140	-115.62386	21.48652	407.25372	177.43686	119.70966	359.24664	-69.93598	1126.19714	-672.05652	-120.27258	573.22742	-371.09451	37.59052	578.55090	-384.62924	-29.77273	558.97760	571.08801	124.18159	550.36804	557.02667	
3282	32.810	-22.99006	1133.77832	-234.31155	204.67159	9.97376	-259.58389	-116.39226	22.04621	407.08276	173.85934	111.11420	356.13217	-70.81405	1124.91040	-674.33173	-122.09376	572.65594	-372.29773	36.70420	577.89294	-385.96237	-33.00340	559.84851	569.89954	120.93320	551.15497	556.08600	
3283	32.820	-25.65216	1109.31836	-222.70792	203.91220	9.38895	-259.77972	-117.58383	22.72568	406.56006	169.86775	101.89743	353.11090	-71.61220	1123.61121	-676.50055	-123.89561	572.18707	-373.50729	34.90089	576.88257	-386.89078	-36.61995	560.61804	568.79346	117.37489	551.61542	555.23120	
3284	32.830	-255.37384	103.53682	-239.68704	203.53333	9.15436	-259.72681	-118.19392	23.19748	406.08511	166.36516	92.83262	350.83762	-72.78550	1122.10559	-678.52411	-126.30199	571.57269	-374.74066	32.45760	575.33197	-387.21750	-39.78812	561.49005	567.75037	114.18243	552.19574	554.23706	
3285	32.840	-28.65298	1106.23352	-225.88554	202.52216	8.70586	-259.94992	-118.64301	23.51643	405.97598	161.21881	84.02816	348.23529	-73.80879	1120.73376	-680.54077	-127.77209	570.63513	-376.06009	30.45784	574.60083	-388.51096	-42.95396	562.55920	566.52081	111.21175	552.60162	553.42914	
3286	32.850	-29.90939	1106.21765	-228.12372	201.54939	8.24457	-260.08429	-119.56394	24.08615	405.92474	155.85309	75.53244	346.50293	-74.85014	1119.68933	-682.89709	-130.17445	570.03552	-377.76593	28.42632	573.78571	-390.16458	-46.63007	563.33807	565.30280	107.33409	553.26154	552.27307	
3287	32.860	-264.23804	78.04394	-248.57462	200.83189	7.67379	-260.45331	-120.44808	24.95795	405.31345	149.85654	66.82379	344.88968	-75.58794	1118.72949	-685.46570	-132.01172	569.34985	-379.31503	26.81478	573.10492	-391.89322	-49.81202	564.10089	563.89789	104.15010	553.87610	550.98669	
3288	32.870	-33.67483	1104.68469	-232.85854	200.35248	7.15657	-260.81476	-121.22511	25.40945	404.69122	144.68379	58.34408	343.82330	-76.21994	1117.41089	-687.95483	-134.25014	568.59857	-381.23221	24.34236	571.78333	-393.14948	-53.77279	565.04474	562.21326	100.23982	554.36578	549.77936	
3289	32.880	-33.94510	1103.87817	-235.22832	199.70598	6.81222	-261.06378	-121.57541	25.56884	404.53238	139.86530	50.74962	342.41571	-76.52956	1115.97937	-690.60199	-136.67645	567.76727	-382.82922	22.31774	570.51575	-394.33752	-56.16240	566.10376	561.54572	96.62479	554.83545	548.12634	
3290	32.890	-275.72910	54.51651	-253.78372	198.64870	6.28470	-261.47427	-122.07826	25.87466	404.19937	135.24831	43.53679	341.16190	-76.99437	1114.47595	-693.68060	-138.61610	566.97382	-384.58102	19.84829	569.63287	-396.18384	-60.99634	566.52936	559.12695	92.48411	555.22144	546.68719	
3291	32.900	-683.71448	1214.92603	-187.68434	197.88470	5.99987	-261.80176	-123.75008	26.83276	404.07153	131.68748	37.30020	340.17828	-77.39922	1112.82471	-696.43787	-141.06918	566.25171	-386.51086	17.90491	568.85571	-398.39832	-65.46561	567.26202	556.68964	88.91047	555.78656	545.02112	
3292	32.910	-685.86072	1213.20972	-188.74738	197.77917	5.88489	-261.79694	-123.56956	27.02979	403.54187	129.02040	34.37258	337.51276	-78.26880	1111.51416	-699.71637	-143.39328	565.67609	-389.17947	15.74810	567.84808	-400.17072	-69.43377	567.92804	554.77026	84.46345	556.26300	543.30084	
3293	32.920	-286.47653	33.43223	-259.37991	197.58066	5.72480	-261.80502	-124.07111	27.50537	403.07184	128.47136	32.81765	335.78494	-78.66431	1110.13794	-703.08398	-145.51346	564.92145	-391.50656	13.63931	566.76672	-402.37991	-73.83537	568.99231	552.47772	79.39785	557.43634	541.55280	
3294	32.930	-691.95959	1211.52881	-191.08521	196.85555	5.33828	-261.78915	-124.21196	27.91505	402.81903	128.58607	33.60443	335.36212	-79.01519	1108.71887	-706.26752	-147.55307	563.26367	-393.75632	10.89971	565.13678	-404.16440	-77.96323	570.98224	550.46332	75.30504	559.25641	539.52112	
3295	32.940	-684.47870	1212.22498	-199.45380	196.83566	5.23040	-261.67838	-124.29850	28.38465	402.57959	128.65439	35.46233	335.86246	-79.78522	1107.28259	-710.53729	-149.81870	561.93744	-396.94012	8.61936	564.08044	-406.64261	-83.20387	572.74365	547.68188	70.64043	561.28705	537.22632	
3296	32.950	-294.05917	8.01673	-266.45972	196.40045	5.12990	-261.79315	-124.76072	28.86531	402.14130	128.05159	36.22206	335.96265	-81.11210	1105.42529	-715.52197	-152.08484	560.88251	-399.43146	6.71749	562.57361	-408.72107	-87.94969	574.52948	545.15863	66.31465	562.87054	535.30579	
3297	32.960	-689.60156	1209.79907	-204.42798	195.74844	5.05316	-261.83896	-125.22000	29.29002	401.33594	127.61594	37.04888	336.00674	-82.97127	1102.41846	-720.35657	-154.46303	561.19025	-402.34561	4.78045	562.71466	-411.42456	-92.71296	576.00995	542.51685	61.70151	563.74170	532.90894	
3298	32.970	-690.32050	1208.22449	-206.43829	193.86032	5.86424	-263.68710	-126.45726	31.30970	399.73932	126.75806	37.16346	334.70648	-85.60894	1099.44116	-724.86438	-155.95769	562.56250	-404.89349	2.94867	563.69495	-413.71600	-97.22144	577.47717	540.00507	56.23793	565.18512	531.04840	
3299	32.980	-297.13538	2.93629	-270.14294	186.99673	9.01946	-261.75217	-127.77242	35.65145	400.37024	125.19347	38.05931	333.26508	-87.44440	1097.30481	-728.27087	-158.16707	563.17224	-407.46918	0.91002	563.96533	-415.68567	-101.39652	578.32971	536.47217	52.62067	566.57141	528.81195	
3300	32.990	-55.89387	658.15417	-283.75574	179.84090	12.69999	-257.98181	-127.97388	40.28151	402.28494	124.14862	39.01308	332.69119	-88.49589	1097.68018	-731.40540	-160.07954	563.26495	-409.91437	-1.05337	563.84180	-417.68182	-105.31086	580.77350	534.09619	48.15836	568.67810	526.79065	
3301	33.000	-65.49122	1098.91138	-572.59949	172.79703	20.17596	-255.49803	-129.18376	52.13916	401.63568	123.50588	39.50451	332.29099	-88.50523	1098.77893	-733.55206	-161.63147	562.53723	-412.13425	-2.92562	563.04956	-419.37805	-108.58515	583.05743	532.03937	45.30713	571.05957	524.98749	
3302	33.010	-67.53115	1099.05664	-575.78845	167.76646	29.00429	-255.16966	-131.55519	63.30747	401.52039	123.59825	39.82169	332.26840	-88.28973	1099.76758	-735.53473	-163.85649	561.51270	-413.76123	-4.90905	561.89026	-421.04300	-111.11333	585.04572	530.43488	41.97177	572.96527	523.35638	
3303	33.020	-59.63412	656.28925	-290.56711	164.45058	40.81132	-257.06757	-137.86653	77.32156	399.22031	123.79708	40.21840	331.99933	-88.11019	1099.60071	-738.20850	-165.61505	560.62756	-415.16376	-7.02533	561.06122	-422.39078	-113.99196	586.60614	528.73187	39.33882	574.79663	522.03497	
3304	33.030	-23.72205	1083.46350	-855.58942	162.86446	54.29659	-260.24976	-144.80101	90.02021	396.25281	123.60855	40.31197	331.39221	-88.93163	1098.46997	-741.03766	-168.03720	560.24982	-416.78674	-8.85140	561.08307	-424.31540	-115.85955	587.66144	527.31329	37.10950	575.94525	520.61481	
3305	33.040	-44.38718	1004.36548	-224.93221	161.72084	68.07372	-264.03796	-153.56850	103.17155	391.92548	123.90475	41.11292	331.21738	-89.66902	1096.60974	-743.66376	-170.02905	560.11713	-417.77356	-10.96766	560.75629	-425.29514	-117.65979	588.81866	526.16028	35.39471	576.66730	519.41370	
3306	33.050	-297.17148	-0.51239	-271.07605	158.87669	81.49616	-268.59521	-162.45718	115.76630	386.20255	124.32755	41.64070	330.91040	-91.33704	1094.08179	-746.20398	-171.53020	559.90668	-418.67175	-12.76472	560.11780	-426.00656	-118.26580	590.48071	526.71570	34.15763	577.36823	518.49463	
3307	33.060	208.48457	927.52356	-231.34576	154.29390	94.25136	-272.17245	-172.04852	127.85867	380.40891	125.93225	42.21171	331.10599	-93.60075	1091.88855	-748.46375	-172.96367	559.17535	-419.31573	-13.97394	559.69855	-427.23032	-119.96291	590.90552	525.54376	32.23071	577.84167	516.81946	
3308	33.070	-296.69312	-1.71944	-271.32910	147.83907	105.80489	-276.68448	-180.79146	139.76472	374.24054	125.47388	42.29533	330.51584	-95.66992	1090.45093	-750.56207	-174.45755	558.65161	-420.43939	-15.15330	559.09180	-428.01352	-121.06615	591.75171	524.63470	31.26090	578.91522	516.62573	
3309	33.080	-296.64627	-2.15278	-271.47675	141.71320	116.10645	-280.48236	-188.54674	151.41451	368.98901	125.77158	42.66194	330.13333	-98.39323	1089.52930	-752.29633	-175.55891	558.04633	-420.74731	-16.73921	558.47180	-428.49756	-123.17072	592.52625	523.38049	29.64707	579.79327	515.90338	
3310	33.090	205.14253	922.95190	-233.32448	135.93344	122.63410	-283.06815	-195.07111	161.47926	364.20496	125.79847	43.06235	329.71918	-100.48283	1088.96362	-753.87360	-176.77370	557.74011	-421.81796	-17.86848	557.83966	-428.96210	-124.12824	593.77673	522.71753	28.44072	580.80334	515.23029	
3311	33.100	-295.86652	-3.04764	-271.71915	130.58627	127.48098	-285.28210	-200.19785	167.22385	361.43875	126.07807	43.38850	329.58005	-102.09047	1088.36157	-755.85681	-177.29808	557.07098	-422.24426	-18.69353	557.34424	-429.41376	-124.84831	594.72681	522.65839	27.08499	581.73608	514.63269	
3312	33.110	-295.68222	-3.34710	-271.77014	127.06829	130.56041	-286.51663	-206.57445	170.96207	359.43771	126.37910	43.55447	329.40112	-103.17928	1087.42798	-757.45636	-178.50513	556.35010	-422.40353	-19.40793	556.93622	-430.02634	-126.37077	595.26569	521.81506	25.95564	582.46417	514.34283	
3313	33.120	206.47920	916.71320	-233.69896	123.07937	130.79538	-287.89639	-212.69437	171.23062	358.44952	127.02742	43.98264	329.30115	-103.79436	1086.25989	-759.37378	-179.51471	556.01971	-422.63516	-20.89763	556.43713	-429.89639	-127.55361	596.04193	521.78583	24.88393	583.34326	514.08307	
3314	33.130	207.16275	915.07245	-233.97687	119.54987	128.33556	-288.44931	-219.60516	170.07381	357.17139	128.40938	44.49052	329.35107	-103.65864	1085.02197	-760.99371	-181.17497	555.62103	-422.75027	-22.10637	555.82928	-429.73853	-127.84070	596.72992	521.53296	24.41847	584.20300	514.00531	
3315	33.140	-294.64648	-4.47221	-271.71298	115.65347	123.55059	-289.16782	-226.27542	167.07631	356.02322	128.07239	44.52255	329.13458	-103.55553	1083.88611	-762.36621	-181.66240	555.16840	-422.40149	-22.51245	555.75104	-430.40170	-127.65881	597.83936	521.81207	23.73660	585.09729	513.99005	
3316	33.150	-294.54361	-4.16392	-271.34055	111.80952	118.11672	-289.55255	-232.89050	162.69745	354.94266	128.53444	44.65688	328.93198	-103.76274	1082.86975	-763.82861	-182.38190	554.72198	-422.30984	-23.72056	555.22052	-429.93320	-128.43961	598.61273	521.51544	24.97858	585.72083	514.05988	
